<svg xmlns="http://www.w3.org/2000/svg" version="1.1" xmlns:xlink="http://www.w3.org/1999/xlink" xmlns:svgjs="http://svgjs.dev/svgjs" width="1440" height="560" preserveAspectRatio="none" viewBox="0 0 1440 560"><g mask="url(&quot;#SvgjsMask1017&quot;)" fill="none"><rect width="1440" height="560" x="0" y="0" fill="rgba(50, 49, 80, 1)"></rect><path d="M816.75 550.57L848.82 550.57L848.82 582.64L816.75 582.64z" fill="#d3b714"></path><path d="M1227.81 55.74L1278.5 55.74L1278.5 106.43L1227.81 106.43z" stroke="#037b0b"></path><path d="M940.94 449.53L951.17 449.53L951.17 459.76L940.94 459.76z" fill="#d3b714"></path><path d="M650.62 352.56L664.58 352.56L664.58 357.52L650.62 357.52z" stroke="#e73635"></path><path d="M725.55 7.54L736.65 7.54L736.65 18.64L725.55 18.64z" stroke="rgba(61, 72, 194, 1)"></path><path d="M182.41 265.46L222.57 265.46L222.57 305.62L182.41 305.62z" fill="rgba(61, 72, 194, 1)"></path><path d="M755.5 483.76a43.57 43.57 0 1 0-83.22-25.84z" stroke="#037b0b"></path><path d="M545.38 87.48L575.95 87.48L575.95 127.35L545.38 127.35z" stroke="#d3b714"></path><path d="M1394.25 245.72 a31.9 31.9 0 1 0 63.8 0 a31.9 31.9 0 1 0 -63.8 0z" fill="#037b0b"></path><path d="M915.2 163.97L968.49 163.97L968.49 200.98L915.2 200.98z" fill="#e73635"></path><path d="M460.99 117.4a28.35 28.35 0 1 0-55.6 11.12z" fill="#d3b714"></path><path d="M1090.37 184.67L1119.32 184.67L1119.32 213.62L1090.37 213.62z" stroke="rgba(61, 72, 194, 1)"></path><path d="M313.24 467.07L357.91 467.07L357.91 467.37L313.24 467.37z" fill="rgba(61, 72, 194, 1)"></path><path d="M160.26 486.21L171.52 486.21L171.52 497.47L160.26 497.47z" stroke="#e73635"></path><path d="M885.27 213.24L889.54 213.24L889.54 217.51L885.27 217.51z" fill="#e73635"></path><path d="M1089.31 305.84a0.68 0.68 0 1 0 0.94 0.99z" fill="#d3b714"></path><path d="M157.71 22.53a45.3 45.3 0 1 0-10.45 90z" fill="#037b0b"></path><path d="M1220.51 369.47L1237.73 369.47L1237.73 386.69L1220.51 386.69z" stroke="#d3b714"></path><path d="M274.63 251.59a49.9 49.9 0 1 0 99.3 9.98z" stroke="#e73635"></path><path d="M1246.34 36.15L1280.12 36.15L1280.12 69.93L1246.34 69.93z" stroke="#037b0b"></path><path d="M1381.7 373.99 a37.43 37.43 0 1 0 74.86 0 a37.43 37.43 0 1 0 -74.86 0z" stroke="#037b0b"></path><path d="M588.08 64.26L617.3 64.26L617.3 93.48L588.08 93.48z" fill="#d3b714"></path><path d="M140.91 450.08 a49.2 49.2 0 1 0 98.4 0 a49.2 49.2 0 1 0 -98.4 0z" stroke="#d3b714"></path><path d="M947.07 456.49L971.79 456.49L971.79 481.21L947.07 481.21z" stroke="#037b0b"></path><path d="M901.06 169.64L909.72 169.64L909.72 178.3L901.06 178.3z" stroke="#e73635"></path><path d="M1186.59 242.43 a45.12 45.12 0 1 0 90.24 0 a45.12 45.12 0 1 0 -90.24 0z" fill="#d3b714"></path><path d="M1055.64 27.02a54.15 54.15 0 1 0-52.86 94.52z" fill="#d3b714"></path><path d="M186.08 62.81L187.5 62.81L187.5 90.64L186.08 90.64z" fill="#e73635"></path><path d="M782.72 334.16L783.67 334.16L783.67 335.11L782.72 335.11z" fill="rgba(61, 72, 194, 1)"></path><path d="M1356.05 461.71a47.52 47.52 0 1 0 52.25 79.39z" fill="rgba(61, 72, 194, 1)"></path><path d="M405.49 410.55 a12.24 12.24 0 1 0 24.48 0 a12.24 12.24 0 1 0 -24.48 0z" stroke="#d3b714"></path><path d="M429.32 508.63L460.03 508.63L460.03 539.34L429.32 539.34z" stroke="rgba(61, 72, 194, 1)"></path><path d="M1166.59 548.8L1199.15 548.8L1199.15 581.36L1166.59 581.36z" fill="#037b0b"></path></g><defs><mask id="SvgjsMask1017"><rect width="1440" height="560" fill="#ffffff"></rect></mask></defs></svg>